<svg width="330" height="68" viewBox="0 0 330 68" fill="none" xmlns="http://www.w3.org/2000/svg">
<path d="M70.822 15.264H89.512V19.044H74.854V28.368H88.504V32.148H74.854V45H70.822V15.264ZM97.5852 15.264H103.591L113.041 37.776H113.209L122.575 15.264H128.581V45H124.549V20.556H124.465L114.427 45H111.739L101.701 20.556H101.617V45H97.5852V15.264ZM138.21 15.264H148.584C150.684 15.264 152.518 15.502 154.086 15.978C155.682 16.454 157.054 17.098 158.202 17.91C159.378 18.694 160.344 19.604 161.1 20.64C161.884 21.676 162.5 22.74 162.948 23.832C163.396 24.924 163.718 26.016 163.914 27.108C164.11 28.2 164.208 29.208 164.208 30.132C164.208 32.036 163.858 33.884 163.158 35.676C162.458 37.44 161.422 39.022 160.05 40.422C158.678 41.794 156.97 42.9 154.926 43.74C152.91 44.58 150.572 45 147.912 45H138.21V15.264ZM142.242 41.22H147.324C149.032 41.22 150.642 40.996 152.154 40.548C153.694 40.072 155.038 39.372 156.186 38.448C157.334 37.524 158.244 36.376 158.916 35.004C159.588 33.604 159.924 31.98 159.924 30.132C159.924 29.18 159.77 28.074 159.462 26.814C159.154 25.526 158.566 24.308 157.698 23.16C156.858 22.012 155.682 21.046 154.17 20.262C152.658 19.45 150.698 19.044 148.29 19.044H142.242V41.22ZM172.953 15.264H192.147V19.044H176.985V27.906H191.097V31.686H176.985V41.22H192.903V45H172.953V15.264ZM197.494 15.264H202.156L210.892 39.456H210.976L220.048 15.264H224.458L212.74 45H208.96L197.494 15.264Z" fill="#4A5173"/>
<path d="M253.184 18.142H258.111V19H252.248V9.79603H257.955V10.654H253.184V13.787H257.643V14.645H253.184V18.142ZM262.073 15.724H266.064L264.075 10.888L262.073 15.724ZM260.708 19H259.616L263.62 9.79603H264.53L268.534 19H267.442L266.428 16.582H261.722L260.708 19ZM275.041 11.317C274.634 10.719 274.04 10.42 273.26 10.42C273.017 10.42 272.779 10.4547 272.545 10.524C272.311 10.5847 272.099 10.6844 271.908 10.823C271.726 10.953 271.579 11.1264 271.466 11.343C271.353 11.551 271.297 11.798 271.297 12.084C271.297 12.5 271.414 12.825 271.648 13.059C271.882 13.2844 272.172 13.4707 272.519 13.618C272.866 13.7654 273.243 13.8997 273.65 14.021C274.066 14.1337 274.447 14.2897 274.794 14.489C275.141 14.6797 275.431 14.9354 275.665 15.256C275.899 15.5767 276.016 16.0144 276.016 16.569C276.016 16.985 275.925 17.362 275.743 17.7C275.57 18.0294 275.336 18.3067 275.041 18.532C274.755 18.7574 274.43 18.9307 274.066 19.052C273.711 19.1734 273.351 19.234 272.987 19.234C272.424 19.234 271.886 19.13 271.375 18.922C270.872 18.7054 270.443 18.3544 270.088 17.869L270.933 17.258C271.132 17.596 271.41 17.869 271.765 18.077C272.12 18.2764 272.541 18.376 273.026 18.376C273.26 18.376 273.494 18.3414 273.728 18.272C273.962 18.194 274.17 18.0857 274.352 17.947C274.543 17.7997 274.699 17.622 274.82 17.414C274.941 17.206 275.002 16.9677 275.002 16.699C275.002 16.3784 274.933 16.114 274.794 15.906C274.664 15.6894 274.486 15.5117 274.261 15.373C274.044 15.2257 273.793 15.1044 273.507 15.009C273.23 14.9137 272.939 14.8184 272.636 14.723C272.341 14.6277 272.051 14.5194 271.765 14.398C271.488 14.2767 271.236 14.125 271.011 13.943C270.794 13.7524 270.617 13.5184 270.478 13.241C270.348 12.955 270.283 12.5997 270.283 12.175C270.283 11.733 270.365 11.3474 270.53 11.018C270.703 10.6887 270.929 10.4157 271.206 10.199C271.492 9.98236 271.813 9.82203 272.168 9.71803C272.523 9.61403 272.887 9.56203 273.26 9.56203C273.78 9.56203 274.252 9.64436 274.677 9.80903C275.102 9.9737 275.496 10.264 275.86 10.68L275.041 11.317ZM281.771 19H280.835V15.035L277.39 9.79603H278.56L281.303 14.138L284.046 9.79603H285.216L281.771 15.035V19ZM293.725 17.674H293.751L296.065 9.79603H297.183L299.497 17.674H299.523L301.707 9.79603H302.747L300.03 19H298.938L296.624 11.122H296.598L294.284 19H293.192L290.475 9.79603H291.515L293.725 17.674ZM305.89 15.724H309.881L307.892 10.888L305.89 15.724ZM304.525 19H303.433L307.437 9.79603H308.347L312.351 19H311.259L310.245 16.582H305.539L304.525 19ZM316.489 19H315.553V15.035L312.108 9.79603H313.278L316.021 14.138L318.764 9.79603H319.934L316.489 15.035V19ZM255.199 37H254.263V28.654H251.182V27.796H258.28V28.654H255.199V37ZM268.579 32.398C268.579 31.8694 268.492 31.3667 268.319 30.89C268.146 30.4047 267.894 29.98 267.565 29.616C267.244 29.252 266.85 28.9617 266.382 28.745C265.914 28.5284 265.385 28.42 264.796 28.42C264.207 28.42 263.678 28.5284 263.21 28.745C262.742 28.9617 262.343 29.252 262.014 29.616C261.693 29.98 261.446 30.4047 261.273 30.89C261.1 31.3667 261.013 31.8694 261.013 32.398C261.013 32.9267 261.1 33.4337 261.273 33.919C261.446 34.3957 261.693 34.816 262.014 35.18C262.343 35.544 262.742 35.8344 263.21 36.051C263.678 36.2677 264.207 36.376 264.796 36.376C265.385 36.376 265.914 36.2677 266.382 36.051C266.85 35.8344 267.244 35.544 267.565 35.18C267.894 34.816 268.146 34.3957 268.319 33.919C268.492 33.4337 268.579 32.9267 268.579 32.398ZM269.593 32.398C269.593 33.1 269.472 33.7457 269.229 34.335C268.986 34.9244 268.648 35.4357 268.215 35.869C267.79 36.2937 267.283 36.6274 266.694 36.87C266.113 37.1127 265.481 37.234 264.796 37.234C264.111 37.234 263.474 37.1127 262.885 36.87C262.304 36.6274 261.797 36.2937 261.364 35.869C260.939 35.4357 260.606 34.9244 260.363 34.335C260.12 33.7457 259.999 33.1 259.999 32.398C259.999 31.696 260.12 31.0504 260.363 30.461C260.606 29.8717 260.939 29.3647 261.364 28.94C261.797 28.5067 262.304 28.1687 262.885 27.926C263.474 27.6834 264.111 27.562 264.796 27.562C265.481 27.562 266.113 27.6834 266.694 27.926C267.283 28.1687 267.79 28.5067 268.215 28.94C268.648 29.3647 268.986 29.8717 269.229 30.461C269.472 31.0504 269.593 31.696 269.593 32.398ZM281.44 35.284L284.547 27.796H285.977V37H285.041V29.044H285.015L281.687 37H281.193L277.865 29.044H277.839V37H276.903V27.796H278.333L281.44 35.284ZM290.314 37H289.378V27.796H290.314V37ZM300.372 35.596H300.398V27.796H301.334V37H300.164L294.678 29.122H294.652V37H293.716V27.796H294.886L300.372 35.596ZM305.68 36.142H310.607V37H304.744V27.796H310.451V28.654H305.68V31.787H310.139V32.645H305.68V36.142ZM253.054 54.142H254.874C255.576 54.142 256.183 54.038 256.694 53.83C257.214 53.6134 257.643 53.3317 257.981 52.985C258.328 52.6297 258.583 52.231 258.748 51.789C258.913 51.3384 258.995 50.8747 258.995 50.398C258.995 49.9214 258.913 49.462 258.748 49.02C258.583 48.5694 258.328 48.1707 257.981 47.824C257.643 47.4687 257.214 47.187 256.694 46.979C256.183 46.7624 255.576 46.654 254.874 46.654H253.054V54.142ZM252.118 45.796H255.173C255.745 45.796 256.317 45.8914 256.889 46.082C257.47 46.2727 257.99 46.563 258.449 46.953C258.917 47.3344 259.294 47.8154 259.58 48.396C259.866 48.968 260.009 49.6354 260.009 50.398C260.009 51.1694 259.866 51.841 259.58 52.413C259.294 52.985 258.917 53.466 258.449 53.856C257.99 54.2374 257.47 54.5234 256.889 54.714C256.317 54.9047 255.745 55 255.173 55H252.118V45.796ZM264.003 51.724H267.994L266.005 46.888L264.003 51.724ZM262.638 55H261.546L265.55 45.796H266.46L270.464 55H269.372L268.358 52.582H263.652L262.638 55ZM274.678 55H273.742V46.654H270.661V45.796H277.759V46.654H274.678V55ZM280.422 51.724H284.413L282.424 46.888L280.422 51.724ZM279.057 55H277.965L281.969 45.796H282.879L286.883 55H285.791L284.777 52.582H280.071L279.057 55Z" fill="#A87878"/>
<g clip-path="url(#clip0)">
<path d="M14.3502 24.5436L9.16592 37.3752L21.9975 42.5595L27.1818 29.7279L14.3502 24.5436Z" fill="#DEB981"/>
<path d="M27.5404 9.16552L22.3561 21.9971L35.1877 27.1814L40.372 14.3498L27.5404 9.16552Z" fill="#488DA3"/>
<path d="M43.4971 19.718L38.3128 32.5496L51.1444 37.7339L56.3287 24.9023L43.4971 19.718Z" fill="#4A5173"/>
<path d="M28.1197 35.096L22.9354 47.9275L35.767 53.1118L40.9513 40.2803L28.1197 35.096Z" fill="#A87878"/>
</g>
<defs>
<clipPath id="clip0">
<rect y="33.5516" width="47.4491" height="47.4491" transform="rotate(-45 0 33.5516)" fill="white"/>
</clipPath>
</defs>
</svg>
